<svg xmlns="http://www.w3.org/2000/svg" xmlns:xlink="http://www.w3.org/1999/xlink" width="512" zoomAndPan="magnify" viewBox="0 0 384 383.999986" height="512" preserveAspectRatio="xMidYMid meet" version="1.0"><defs><g/><clipPath id="90e3999741"><rect x="0" width="146" y="0" height="335"/></clipPath></defs><g transform="matrix(1, 0, 0, 1, 126, 24)"><g clip-path="url(#90e3999741)"><g fill="#d4ff1a" fill-opacity="1"><g transform="translate(0.291677, 268.358883)"><g><path d="M 3.75 -256.421875 L 117.8125 -256.421875 C 119.164062 -256.210938 119.84375 -255.484375 119.84375 -254.234375 L 119.84375 -233.140625 L 118.75 -225.796875 C 124.375 -225.066406 127.1875 -224.023438 127.1875 -222.671875 L 127.1875 -221.578125 C 125.101562 -218.972656 124.0625 -216.523438 124.0625 -214.234375 L 124.0625 -115.9375 C 124.269531 -114.476562 125 -113.75 126.25 -113.75 L 140 -113.75 C 140.9375 -113.75 141.976562 -112.707031 143.125 -110.625 L 138.90625 -107.5 L 118.75 -107.5 L 116.71875 -106.40625 L 117.8125 -104.375 L 117.8125 -101.09375 L 109.375 -94.84375 C 109.375 -94.113281 109.6875 -93.75 110.3125 -93.75 C 110.3125 -93.019531 110 -91.976562 109.375 -90.625 C 109.375 -84.269531 111.457031 -81.09375 115.625 -81.09375 C 117.082031 -80.882812 117.8125 -80.15625 117.8125 -78.90625 C 117.8125 -77.550781 117.082031 -76.875 115.625 -76.875 L 92.34375 -76.875 L 92.34375 -75.78125 C 102.96875 -75.050781 110.726562 -74.6875 115.625 -74.6875 L 117.8125 -73.59375 L 116.71875 -66.25 L 116.71875 8.75 L 117.8125 16.09375 L 113.59375 19.21875 C 113.59375 19.945312 113.90625 20.3125 114.53125 20.3125 C 113.90625 26.664062 112.863281 29.84375 111.40625 29.84375 L 57.5 29.84375 C 44.894531 29.84375 38.59375 28.800781 38.59375 26.71875 L 38.59375 19.21875 L 41.71875 15 L 41.71875 -73.59375 C 37.96875 -74.320312 35.832031 -74.6875 35.3125 -74.6875 C 34.582031 -74.6875 33.539062 -74.320312 32.1875 -73.59375 C 28.332031 -74.320312 25.15625 -74.6875 22.65625 -74.6875 L 14.21875 -74.6875 L 14.21875 -76.875 L 39.53125 -76.875 C 40.988281 -76.875 41.71875 -77.550781 41.71875 -78.90625 L 41.71875 -81.09375 L 36.40625 -81.09375 C 35.050781 -81.09375 34.375 -81.769531 34.375 -83.125 L 34.375 -95.78125 L 41.71875 -100 C 41.71875 -105 42.082031 -107.863281 42.8125 -108.59375 C 44.375 -108.59375 45.78125 -108.226562 47.03125 -107.5 C 54.21875 -108.226562 59.84375 -108.59375 63.90625 -108.59375 L 65 -108.59375 C 66.351562 -108.59375 67.03125 -109.269531 67.03125 -110.625 L 67.03125 -112.8125 L 61.71875 -113.75 L 49.0625 -113.75 L 49.0625 -200.484375 C 49.0625 -201.835938 48.382812 -202.515625 47.03125 -202.515625 L 7.96875 -202.515625 C 6.507812 -202.515625 5.78125 -203.242188 5.78125 -204.703125 L 5.78125 -217.359375 C 7.238281 -219.128906 7.96875 -220.171875 7.96875 -220.484375 L 7.96875 -224.703125 C 3.695312 -224.703125 1.5625 -225.429688 1.5625 -226.890625 L 1.5625 -254.234375 C 1.769531 -255.691406 2.5 -256.421875 3.75 -256.421875 Z M 27.96875 -112.8125 L 32.1875 -112.8125 C 33.644531 -112.601562 34.375 -111.875 34.375 -110.625 C 34.375 -109.269531 33.644531 -108.59375 32.1875 -108.59375 L 30.15625 -108.59375 C 28.695312 -108.59375 27.96875 -109.269531 27.96875 -110.625 Z M 27.96875 -112.8125 "/></g></g></g></g></g></svg>