<svg xmlns="http://www.w3.org/2000/svg" xmlns:xlink="http://www.w3.org/1999/xlink" width="512" zoomAndPan="magnify" viewBox="0 0 384 383.999986" height="512" preserveAspectRatio="xMidYMid meet" version="1.0"><defs><g/><clipPath id="a63bd98d67"><path d="M 5 11 L 251.601562 11 L 251.601562 299 L 5 299 Z M 5 11 " clip-rule="nonzero"/></clipPath><clipPath id="afb81fe3b6"><rect x="0" width="252" y="0" height="335"/></clipPath></defs><g transform="matrix(1, 0, 0, 1, 64, 24)"><g clip-path="url(#afb81fe3b6)"><g clip-path="url(#a63bd98d67)"><g fill="#d4ff1a" fill-opacity="1"><g transform="translate(16.28047, 268.358883)"><g><path d="M 127.8125 -256.890625 L 214.859375 -256.890625 C 216.210938 -256.679688 216.890625 -255.953125 216.890625 -254.703125 L 216.890625 -146.71875 C 216.890625 -145.257812 216.210938 -144.53125 214.859375 -144.53125 L 205.328125 -144.53125 L 205.328125 -139.21875 C 205.328125 -138.488281 204.960938 -138.125 204.234375 -138.125 C 204.960938 -136.769531 205.328125 -135.726562 205.328125 -135 C 208.140625 -135 209.546875 -135.363281 209.546875 -136.09375 L 216.890625 -135 L 231.734375 -135 C 232.773438 -135 233.816406 -133.957031 234.859375 -131.875 C 234.859375 -130.414062 234.179688 -129.6875 232.828125 -129.6875 L 219.078125 -129.6875 L 213.765625 -128.59375 L 213.765625 -108.4375 C 213.765625 -107.082031 213.035156 -106.40625 211.578125 -106.40625 L 195.796875 -106.40625 L 194.703125 -101.09375 L 194.703125 -87.34375 C 194.910156 -85.882812 195.585938 -85.15625 196.734375 -85.15625 L 217.984375 -85.15625 L 217.984375 -55.46875 C 217.984375 -54.113281 216.578125 -53.4375 213.765625 -53.4375 L 213.765625 -49.21875 L 230.640625 -49.21875 C 232.097656 -49.007812 232.828125 -48.28125 232.828125 -47.03125 L 232.828125 -32.1875 C 232.828125 -30.832031 232.097656 -30.15625 230.640625 -30.15625 L 220.171875 -30.15625 C 218.503906 -30.15625 217.046875 -29.789062 215.796875 -29.0625 C 214.648438 -29.789062 213.242188 -30.15625 211.578125 -30.15625 C 210.640625 -30.15625 209.597656 -28.382812 208.453125 -24.84375 C 208.765625 -22.65625 210.535156 -20.15625 213.765625 -17.34375 L 213.765625 -7.8125 L 221.109375 -7.8125 C 222.566406 -7.601562 223.296875 -6.925781 223.296875 -5.78125 C 223.296875 -4.738281 222.253906 -3.644531 220.171875 -2.5 L 202.046875 -2.5 L 202.046875 -0.46875 L 209.546875 3.75 L 209.546875 28.125 C 209.546875 29.582031 208.816406 30.3125 207.359375 30.3125 L 202.046875 30.3125 C 201.316406 30.3125 200.953125 29.945312 200.953125 29.21875 L 198.921875 30.3125 L 160.796875 30.3125 C 154.742188 30.3125 145.882812 29.945312 134.21875 29.21875 L 134.21875 1.71875 L 130 0.625 C 128.644531 1.351562 127.601562 1.71875 126.875 1.71875 L 126.875 -2.5 L 128.90625 -2.5 C 132.65625 -2.5 138.695312 -2.863281 147.03125 -3.59375 L 147.03125 -5.78125 C 147.03125 -7.132812 146.300781 -7.8125 144.84375 -7.8125 L 142.65625 -6.71875 C 139.632812 -6.71875 137.914062 -10.988281 137.5 -19.53125 C 135 -19.53125 133.539062 -22.707031 133.125 -29.0625 L 131.09375 -30.15625 L 18.75 -30.15625 C 14.894531 -30.15625 9.945312 -30.46875 3.90625 -31.09375 C 2.65625 -30.46875 1.25 -30.15625 -0.3125 -30.15625 L -1.40625 -32.1875 C 4.21875 -41.5625 7.03125 -46.507812 7.03125 -47.03125 C 7.03125 -48.488281 6.351562 -49.21875 5 -49.21875 L -8.75 -49.21875 C -10.207031 -49.21875 -10.9375 -49.894531 -10.9375 -51.25 C -5.101562 -52.914062 -1.195312 -56.09375 0.78125 -60.78125 C 12.445312 -85.570312 20.882812 -100.78125 26.09375 -106.40625 L 38.90625 -106.40625 C 43.695312 -106.40625 48.28125 -112.757812 52.65625 -125.46875 L 56.875 -129.6875 L 74.84375 -129.6875 C 76.300781 -129.6875 77.03125 -130.414062 77.03125 -131.875 L 77.03125 -133.90625 L 75.9375 -133.90625 C 59.582031 -134.632812 51.09375 -135 50.46875 -135 C 50.46875 -135.726562 50.15625 -136.09375 49.53125 -136.09375 C 51.40625 -140.882812 53.488281 -144.0625 55.78125 -145.625 L 66.40625 -145.625 C 79.632812 -169.070312 97.289062 -201.941406 119.375 -244.234375 C 120.832031 -248.609375 123.644531 -252.828125 127.8125 -256.890625 Z M 138.4375 -150.9375 L 138.4375 -145.625 L 139.53125 -145.625 C 140.988281 -145.625 141.71875 -146.300781 141.71875 -147.65625 L 141.71875 -150.9375 Z M 120.46875 -136.09375 C 121.195312 -136.09375 121.5625 -135.726562 121.5625 -135 L 123.59375 -136.09375 C 124.84375 -135.363281 126.25 -135 127.8125 -135 L 128.90625 -137.1875 L 128.90625 -144.53125 L 127.8125 -144.53125 C 123.644531 -144.53125 121.195312 -141.71875 120.46875 -136.09375 Z M 147.03125 -131.875 L 147.03125 -130.78125 L 150.15625 -130.78125 C 151.71875 -130.78125 153.125 -130.414062 154.375 -129.6875 C 155.625 -130.414062 157.03125 -130.78125 158.59375 -130.78125 L 158.59375 -131.875 C 158.59375 -133.226562 157.914062 -133.90625 156.5625 -133.90625 L 149.0625 -133.90625 C 147.707031 -133.695312 147.03125 -133.019531 147.03125 -131.875 Z M 40 -133.90625 L 42.03125 -133.90625 L 42.03125 -132.8125 C 42.03125 -131.875 40.988281 -130.832031 38.90625 -129.6875 C 37.445312 -129.6875 36.71875 -130.414062 36.71875 -131.875 Z M 113.125 -106.40625 L 100.3125 -106.40625 C 95.414062 -106.40625 90.101562 -99.320312 84.375 -85.15625 L 120.46875 -85.15625 L 120.46875 -105.3125 L 121.5625 -107.5 L 126.875 -106.40625 L 131.09375 -106.40625 L 138.4375 -107.5 L 138.4375 -128.59375 L 133.125 -129.6875 L 131.09375 -129.6875 C 125.675781 -129.6875 121.40625 -124.0625 118.28125 -112.8125 C 115.570312 -108.539062 113.851562 -106.40625 113.125 -106.40625 Z M 118.28125 -3.59375 C 119.738281 -3.382812 120.46875 -2.707031 120.46875 -1.5625 L 120.46875 -0.46875 C 120.46875 0.988281 119.738281 1.71875 118.28125 1.71875 L 117.34375 1.71875 C 115.882812 1.71875 115.15625 0.988281 115.15625 -0.46875 C 115.15625 -1.40625 116.195312 -2.445312 118.28125 -3.59375 Z M 118.28125 -3.59375 "/></g></g></g></g></g></g></svg>