<?xml version="1.0" encoding="iso-8859-1"?>
<!-- Uploaded to: SVG Repo, www.svgrepo.com, Generator: SVG Repo Mixer Tools -->
<svg fill="#000000" height="800px" width="800px" version="1.1" id="Layer_1" xmlns="http://www.w3.org/2000/svg" xmlns:xlink="http://www.w3.org/1999/xlink" 
	 viewBox="0 0 511.999 511.999" xml:space="preserve">
<g>
	<g>
		<path d="M473.265,120.544c-24.642-39.445-59.524-71.47-100.874-92.612c-4.918-2.515-10.949-0.567-13.466,4.354
			c-2.516,4.921-0.567,10.951,4.355,13.466c38.124,19.494,70.286,49.024,93.009,85.396c23.352,37.378,35.694,80.551,35.694,124.851
			c0,130.123-105.863,235.985-235.985,235.985S20.015,386.123,20.015,255.999S125.877,20.015,255.999,20.015
			c5.528,0,10.007-4.481,10.007-10.007S261.527,0,255.999,0C114.84,0,0,114.841,0,255.999s114.84,255.999,255.999,255.999
			s255.999-114.84,255.999-255.999C512,207.945,498.606,161.106,473.265,120.544z"/>
	</g>
</g>
<g>
	<g>
		<path d="M249.101,181.446c-9.951-17.864-28.824-28.961-49.256-28.961c-19.844,0-38.76,10.991-49.368,28.685
			c-2.842,4.739-1.304,10.887,3.437,13.729c4.74,2.841,10.885,1.304,13.729-3.437c7.012-11.697,19.352-18.962,32.202-18.962
			c13.176,0,25.351,7.16,31.771,18.686c1.831,3.286,5.239,5.14,8.752,5.14c1.647,0,3.318-0.408,4.861-1.266
			C250.058,192.369,251.791,186.275,249.101,181.446z"/>
	</g>
</g>
<g>
	<g>
		<path d="M425.23,181.446c-9.95-17.864-28.824-28.961-49.255-28.961c-19.845,0-38.76,10.991-49.37,28.685
			c-2.842,4.739-1.304,10.887,3.437,13.729c4.74,2.841,10.885,1.304,13.729-3.437c7.012-11.697,19.352-18.962,32.202-18.962
			c13.176,0,25.351,7.16,31.771,18.686c1.831,3.286,5.238,5.14,8.752,5.14c1.647,0,3.318-0.408,4.861-1.266
			C426.187,192.369,427.92,186.275,425.23,181.446z"/>
	</g>
</g>
<g>
	<g>
		<path d="M372.395,344.84c13.698-8.365,25.858-17.689,23.22-35.948c-2.702-18.704-20.579-26.463-37.454-23.364
			c-12.361,2.27-24.702,4.651-37.054,6.977c-3.488,0.656-7.76,0.858-11.079,2.294c-10.577,4.579-5.998,21.298,5.651,19.098
			c10.636-2.003,21.27-4.006,31.906-6.008c7.951-1.497,27.783-8.656,28.305,5.376c0.242,6.501-4.455,8.714-9.139,11.574
			c-5.966,3.643-11.93,7.287-17.896,10.929c-5.732,3.501-11.147,9.391-6.265,16.32c3.085,4.379,10.649,6.231,15.295,8.259
			c4.389,1.916,13.146,4.188,16.1,8.031c4.726,6.147,0.084,14.097-6.962,14.512c-12.282,0.725-25.549-1.784-37.824-2.641
			c-3.635-0.254-7.443-0.871-11.091-0.774c-10.692,0.286-15.26,14.962-4.338,19.265c3.588,1.413,8.302,1.075,12.073,1.338
			c6.976,0.487,13.952,0.974,20.927,1.461c13.098,0.914,26.985,4.196,38.171-4.77c8.892-7.128,12.901-19.075,10.009-30.121
			C391.725,354.337,382.9,349.884,372.395,344.84z"/>
	</g>
</g>
<g>
	<g>
		<circle cx="331.536" cy="22.857" r="10.007"/>
	</g>
</g>
</svg>