<?xml version="1.0" encoding="UTF-8" standalone="no"?>
<svg
   version="1.1"
   width="1000"
   height="1000"
   viewBox="0 0 750 750"
   id="svg5"
   xmlns="http://www.w3.org/2000/svg"
   xmlns:svg="http://www.w3.org/2000/svg">
  <defs
     id="defs5" />
  <g
     id="g4"
     transform="translate(-93.75,-93.75)">
    <path
       id="circle3"
       style="fill:#000000;stroke:none;stroke-width:1.33333"
       d="m 468.75,93.75 a 375,375 0 0 0 -375,375 375,375 0 0 0 340.76563,372.55273 V 605.00585 A 239.89596,239.89596 0 0 1 228.85352,367.57227 239.89596,239.89596 0 0 1 468.75,127.67579 239.89596,239.89596 0 0 1 708.64648,367.57227 239.89596,239.89596 0 0 1 502.98437,605.00585 V 841.30273 A 375,375 0 0 0 843.75,468.75 a 375,375 0 0 0 -375,-375 z m 0,71.625 A 202.19657,202.19657 0 0 0 266.55273,367.57227 202.19657,202.19657 0 0 0 468.75,569.76757 202.19657,202.19657 0 0 0 670.94727,367.57227 202.19657,202.19657 0 0 0 468.75,165.375 Z" />
  </g>
</svg>
