<svg xmlns="http://www.w3.org/2000/svg" xmlns:xlink="http://www.w3.org/1999/xlink" width="512" zoomAndPan="magnify" viewBox="0 0 384 383.999986" height="512" preserveAspectRatio="xMidYMid meet" version="1.0"><defs><clipPath id="e4664522fa"><path d="M 24.960938 80 L 220 80 L 220 384 L 24.960938 384 Z M 24.960938 80 " clip-rule="nonzero"/></clipPath><clipPath id="a63e2ad33c"><path d="M 136 239 L 358.710938 239 L 358.710938 384 L 136 384 Z M 136 239 " clip-rule="nonzero"/></clipPath><clipPath id="46830f35e4"><path d="M 24.960938 80 L 220 80 L 220 384 L 24.960938 384 Z M 24.960938 80 " clip-rule="nonzero"/></clipPath><clipPath id="bf52f42376"><path d="M 136 239 L 358.710938 239 L 358.710938 384 L 136 384 Z M 136 239 " clip-rule="nonzero"/></clipPath></defs><g clip-path="url(#e4664522fa)"><path fill="#d4ff1a" d="M 73.613281 383.691406 C 74.367188 383.101562 74.929688 382.226562 75.433594 381.058594 C 99.269531 325.925781 123.175781 270.820312 147.074219 215.714844 C 150.230469 208.421875 153.410156 201.140625 156.914062 193.078125 C 157.875 194.625 158.425781 195.332031 158.773438 196.125 C 162.199219 203.839844 165.660156 211.542969 168.964844 219.304688 C 170.023438 221.800781 171.523438 222.832031 174.324219 222.800781 C 187.507812 222.691406 200.679688 222.792969 213.863281 222.765625 C 215.59375 222.765625 217.324219 222.488281 219.855469 222.277344 C 199.1875 174.574219 178.796875 127.523438 158.417969 80.460938 C 158.003906 80.371094 157.585938 80.269531 157.183594 80.175781 C 113.160156 181.238281 69.128906 282.300781 24.960938 383.691406 Z M 73.613281 383.691406 " fill-opacity="1" fill-rule="nonzero"/></g><g clip-path="url(#a63e2ad33c)"><path fill="#d4ff1a" d="M 260.71875 283.632812 C 264.742188 283.617188 266.859375 284.777344 268.507812 288.625 C 281.625 319.316406 294.992188 349.886719 308.222656 380.535156 C 308.867188 382.035156 309.601562 383.074219 310.707031 383.691406 L 359 383.691406 C 358.441406 382.199219 358.144531 381.34375 357.796875 380.515625 C 351.332031 365.511719 344.878906 350.503906 338.390625 335.507812 C 325.1875 305.011719 311.96875 274.511719 298.785156 244.003906 C 297.746094 241.589844 296.6875 239.945312 293.4375 239.953125 C 248.632812 240.082031 203.828125 240.054688 159.015625 240 C 156.4375 240 155.066406 240.78125 154.035156 243.265625 C 149.734375 253.625 145.1875 263.878906 140.75 274.1875 C 139.480469 277.144531 138.265625 280.128906 136.765625 283.726562 C 139.527344 283.726562 141.449219 283.726562 143.375 283.726562 C 182.480469 283.71875 221.59375 283.761719 260.71875 283.632812 Z M 260.71875 283.632812 " fill-opacity="1" fill-rule="nonzero"/></g><path fill="#d4ff1a" d="M 289.902344 222.515625 C 286.523438 222.515625 284.34375 222.515625 282.160156 222.515625 C 269.539062 222.515625 256.917969 222.40625 244.296875 222.582031 C 241.039062 222.628906 239.382812 221.53125 238.09375 218.550781 C 219.035156 174.601562 199.871094 130.707031 180.730469 86.796875 C 176.746094 77.65625 172.703125 68.542969 168.855469 59.34375 C 168.292969 58 168.128906 56.039062 168.679688 54.75 C 176.0625 37.425781 183.59375 20.175781 191.125 2.914062 C 191.472656 2.101562 192.210938 1.457031 193.105469 0.289062 C 225.351562 74.332031 257.386719 147.886719 289.902344 222.515625 Z M 289.902344 222.515625 " fill-opacity="1" fill-rule="nonzero"/><path fill="#d4ff1a" d="M 240.191406 381.566406 C 240.625 382.570312 241.140625 383.230469 241.757812 383.691406 L 289.910156 383.691406 C 289.617188 382.84375 289.441406 382.265625 289.210938 381.742188 C 277.953125 355.707031 266.722656 329.664062 255.296875 303.703125 C 254.738281 302.433594 252.398438 301.234375 250.871094 301.207031 C 238.671875 301.003906 226.464844 301.097656 214.257812 301.097656 C 211.523438 301.097656 208.789062 301.097656 205.523438 301.097656 C 205.890625 302.542969 205.953125 303.09375 206.175781 303.582031 C 217.515625 329.5625 228.921875 355.53125 240.191406 381.566406 Z M 240.191406 381.566406 " fill-opacity="1" fill-rule="nonzero"/><g clip-path="url(#46830f35e4)"><path fill="#d4ff1a" d="M 73.613281 383.691406 C 74.367188 383.101562 74.929688 382.226562 75.433594 381.058594 C 99.269531 325.925781 123.175781 270.820312 147.074219 215.714844 C 150.230469 208.421875 153.410156 201.140625 156.914062 193.078125 C 157.875 194.625 158.425781 195.332031 158.773438 196.125 C 162.199219 203.839844 165.660156 211.542969 168.964844 219.304688 C 170.023438 221.800781 171.523438 222.832031 174.324219 222.800781 C 187.507812 222.691406 200.679688 222.792969 213.863281 222.765625 C 215.59375 222.765625 217.324219 222.488281 219.855469 222.277344 C 199.1875 174.574219 178.796875 127.523438 158.417969 80.460938 C 158.003906 80.371094 157.585938 80.269531 157.183594 80.175781 C 113.160156 181.238281 69.128906 282.300781 24.960938 383.691406 Z M 73.613281 383.691406 " fill-opacity="1" fill-rule="nonzero"/></g><g clip-path="url(#bf52f42376)"><path fill="#d4ff1a" d="M 260.71875 283.632812 C 264.742188 283.617188 266.859375 284.777344 268.507812 288.625 C 281.625 319.316406 294.992188 349.886719 308.222656 380.535156 C 308.867188 382.035156 309.601562 383.074219 310.707031 383.691406 L 359 383.691406 C 358.441406 382.199219 358.144531 381.34375 357.796875 380.515625 C 351.332031 365.511719 344.878906 350.503906 338.390625 335.507812 C 325.1875 305.011719 311.96875 274.511719 298.785156 244.003906 C 297.746094 241.589844 296.6875 239.945312 293.4375 239.953125 C 248.632812 240.082031 203.828125 240.054688 159.015625 240 C 156.4375 240 155.066406 240.78125 154.035156 243.265625 C 149.734375 253.625 145.1875 263.878906 140.75 274.1875 C 139.480469 277.144531 138.265625 280.128906 136.765625 283.726562 C 139.527344 283.726562 141.449219 283.726562 143.375 283.726562 C 182.480469 283.71875 221.59375 283.761719 260.71875 283.632812 Z M 260.71875 283.632812 " fill-opacity="1" fill-rule="nonzero"/></g><path fill="#d4ff1a" d="M 289.902344 222.515625 C 286.523438 222.515625 284.34375 222.515625 282.160156 222.515625 C 269.539062 222.515625 256.917969 222.40625 244.296875 222.582031 C 241.039062 222.628906 239.382812 221.53125 238.09375 218.550781 C 219.035156 174.601562 199.871094 130.707031 180.730469 86.796875 C 176.746094 77.65625 172.703125 68.542969 168.855469 59.34375 C 168.292969 58 168.128906 56.039062 168.679688 54.75 C 176.0625 37.425781 183.59375 20.175781 191.125 2.914062 C 191.472656 2.101562 192.210938 1.457031 193.105469 0.289062 C 225.351562 74.332031 257.386719 147.886719 289.902344 222.515625 Z M 289.902344 222.515625 " fill-opacity="1" fill-rule="nonzero"/><path fill="#d4ff1a" d="M 240.191406 381.566406 C 240.625 382.570312 241.140625 383.230469 241.757812 383.691406 L 289.910156 383.691406 C 289.617188 382.84375 289.441406 382.265625 289.210938 381.742188 C 277.953125 355.707031 266.722656 329.664062 255.296875 303.703125 C 254.738281 302.433594 252.398438 301.234375 250.871094 301.207031 C 238.671875 301.003906 226.464844 301.097656 214.257812 301.097656 C 211.523438 301.097656 208.789062 301.097656 205.523438 301.097656 C 205.890625 302.542969 205.953125 303.09375 206.175781 303.582031 C 217.515625 329.5625 228.921875 355.53125 240.191406 381.566406 Z M 240.191406 381.566406 " fill-opacity="1" fill-rule="nonzero"/></svg>