<svg xmlns="http://www.w3.org/2000/svg" xmlns:xlink="http://www.w3.org/1999/xlink" width="512" zoomAndPan="magnify" viewBox="0 0 384 383.999986" height="512" preserveAspectRatio="xMidYMid meet" version="1.0"><defs><g/><clipPath id="b7e8bc3464"><path d="M 0.359375 11 L 231 11 L 231 297 L 0.359375 297 Z M 0.359375 11 " clip-rule="nonzero"/></clipPath><clipPath id="b0069559bc"><rect x="0" width="236" y="0" height="335"/></clipPath></defs><g transform="matrix(1, 0, 0, 1, 81, 24)"><g clip-path="url(#b0069559bc)"><g clip-path="url(#b7e8bc3464)"><g fill="#d4ff1a" fill-opacity="1"><g transform="translate(0.371038, 268.358883)"><g><path d="M 120.3125 -256.890625 L 136.875 -256.890625 C 146.5625 -256.890625 157.972656 -254.492188 171.109375 -249.703125 L 171.109375 -247.515625 L 170.015625 -247.515625 C 168.140625 -247.515625 161.257812 -247.203125 149.375 -246.578125 L 149.375 -245.484375 C 156.78125 -245.484375 162.984375 -245.117188 167.984375 -244.390625 L 170.015625 -245.484375 C 183.453125 -239.441406 194.859375 -228.398438 204.234375 -212.359375 C 209.128906 -202.773438 211.578125 -188.242188 211.578125 -168.765625 L 213.609375 -167.671875 L 228.140625 -167.671875 C 229.492188 -167.460938 230.171875 -166.785156 230.171875 -165.640625 C 229.546875 -161.460938 228.503906 -159.375 227.046875 -159.375 L 220.796875 -159.375 L 220.796875 -155.3125 L 227.046875 -155.3125 L 227.046875 -152.1875 L 211.578125 -152.1875 L 211.578125 -150.15625 L 225.015625 -150.15625 L 227.046875 -149.0625 C 223.296875 -136.25 210.847656 -115.832031 189.703125 -87.8125 C 172.203125 -65.726562 162.566406 -54.6875 160.796875 -54.6875 C 137.242188 -54.6875 125.46875 -52.96875 125.46875 -49.53125 L 112.03125 -49.53125 L 112.03125 -47.5 L 134.84375 -47.5 C 136.195312 -47.1875 136.875 -46.457031 136.875 -45.3125 C 131.457031 -37.707031 126.976562 -33.90625 123.4375 -33.90625 C 118.539062 -33.90625 114.738281 -31.507812 112.03125 -26.71875 L 112.03125 -25.625 L 191.890625 -25.625 C 193.453125 -25.625 194.804688 -25.3125 195.953125 -24.6875 C 197.203125 -25.3125 198.609375 -25.625 200.171875 -25.625 L 215.640625 -25.625 C 217.097656 -25.414062 217.828125 -24.738281 217.828125 -23.59375 L 217.828125 26.25 C 217.828125 27.601562 217.097656 28.28125 215.640625 28.28125 L 9.375 28.28125 C 7.8125 28.28125 6.40625 27.914062 5.15625 27.1875 C 4.007812 27.914062 2.65625 28.28125 1.09375 28.28125 L 0 28.28125 C 0 25.257812 11.039062 10.050781 33.125 -17.34375 L 38.4375 -24.6875 L 38.4375 -25.625 L 33.125 -25.625 L 31.09375 -26.71875 C 31.09375 -31.820312 36.976562 -34.945312 48.75 -36.09375 C 49.269531 -37.65625 51.351562 -41.09375 55 -46.40625 L 52.8125 -46.40625 C 49.269531 -46.40625 43.4375 -46.769531 35.3125 -47.5 C 34.0625 -46.769531 32.65625 -46.40625 31.09375 -46.40625 L 30 -48.4375 L 33.125 -50.46875 C 33.851562 -50.46875 34.21875 -50.15625 34.21875 -49.53125 C 40.882812 -49.53125 46.09375 -51.25 49.84375 -54.6875 L 55 -54.6875 C 57.082031 -54.6875 58.125 -54.320312 58.125 -53.59375 L 63.28125 -54.6875 L 76.71875 -54.6875 C 81.09375 -54.6875 90.414062 -65.050781 104.6875 -85.78125 C 117.601562 -100.78125 133.488281 -121.875 152.34375 -149.0625 L 150.3125 -150.15625 L 127.5 -150.15625 L 127.5 -152.1875 L 152.34375 -152.1875 C 153.800781 -152.1875 154.53125 -152.863281 154.53125 -154.21875 C 150.363281 -155.15625 148.28125 -156.195312 148.28125 -157.34375 C 148.28125 -158.59375 151.40625 -159.640625 157.65625 -160.484375 L 157.65625 -167.671875 C 155.570312 -167.671875 153.125 -168.035156 150.3125 -168.765625 C 146.5625 -168.035156 143.4375 -167.671875 140.9375 -167.671875 L 140 -169.859375 L 140 -178.140625 C 140 -184.703125 134.789062 -192.617188 124.375 -201.890625 L 124.375 -202.984375 C 105.9375 -202.984375 95.257812 -193.296875 92.34375 -173.921875 L 93.28125 -168.765625 L 91.25 -167.671875 L 40.46875 -167.671875 C 36.613281 -167.671875 31.769531 -168.035156 25.9375 -168.765625 C 24.6875 -168.035156 23.28125 -167.671875 21.71875 -167.671875 L 20.78125 -169.859375 L 20.78125 -175.953125 C 20.78125 -202.617188 33.539062 -224.390625 59.0625 -241.265625 C 59.0625 -241.992188 60.101562 -242.359375 62.1875 -242.359375 L 62.1875 -244.390625 L 45.625 -244.390625 L 45.625 -246.578125 C 52.5 -247.203125 57.707031 -247.515625 61.25 -247.515625 L 74.6875 -247.515625 C 93.851562 -253.765625 109.0625 -256.890625 120.3125 -256.890625 Z M 101.5625 -152.1875 L 103.75 -152.1875 L 103.75 -150.15625 L 101.5625 -150.15625 Z M 114.0625 -152.1875 L 116.09375 -152.1875 L 116.09375 -150.15625 L 114.0625 -150.15625 Z M 29.0625 -35 L 30 -32.96875 C 29.375 -32.96875 26.976562 -30.519531 22.8125 -25.625 C 22.8125 -26.351562 22.445312 -26.71875 21.71875 -26.71875 C 22.96875 -29.84375 25.414062 -32.601562 29.0625 -35 Z M 29.0625 -35 "/></g></g></g></g></g></g></svg>