<svg xmlns="http://www.w3.org/2000/svg" xmlns:xlink="http://www.w3.org/1999/xlink" width="512" zoomAndPan="magnify" viewBox="0 0 384 383.999986" height="512" preserveAspectRatio="xMidYMid meet" version="1.0"><defs><g/><clipPath id="d8932c256e"><path d="M 0.199219 11 L 223 11 L 223 299 L 0.199219 299 Z M 0.199219 11 " clip-rule="nonzero"/></clipPath><clipPath id="439537cb19"><rect x="0" width="227" y="0" height="335"/></clipPath></defs><g transform="matrix(1, 0, 0, 1, 85, 24)"><g clip-path="url(#439537cb19)"><g clip-path="url(#d8932c256e)"><g fill="#d4ff1a" fill-opacity="1"><g transform="translate(0.358628, 268.358883)"><g><path d="M 8.28125 -256.421875 L 208.140625 -256.421875 L 208.140625 -252.203125 L 206.109375 -249.078125 L 210.328125 -249.078125 C 204.597656 -234.492188 196.941406 -227.203125 187.359375 -227.203125 C 170.796875 -205.742188 161.785156 -195.015625 160.328125 -195.015625 C 155.523438 -195.015625 150.675781 -190.847656 145.78125 -182.515625 L 145.78125 -181.421875 C 148.488281 -181.421875 149.84375 -180.378906 149.84375 -178.296875 L 172.828125 -178.296875 C 174.179688 -178.085938 174.859375 -177.410156 174.859375 -176.265625 L 172.828125 -175.171875 L 146.71875 -175.171875 C 130.050781 -155.578125 121.71875 -145.207031 121.71875 -144.0625 C 140.988281 -144.0625 158.390625 -138.851562 173.921875 -128.4375 C 173.921875 -126.351562 174.597656 -125.3125 175.953125 -125.3125 L 190.484375 -125.3125 C 197.359375 -125.3125 206.367188 -114.164062 217.515625 -91.875 C 220.328125 -77.707031 221.734375 -68.695312 221.734375 -64.84375 L 221.734375 -54.53125 C 221.734375 -52.445312 216.160156 -51.40625 205.015625 -51.40625 L 200.953125 -51.40625 L 200.953125 -49.21875 L 206.109375 -48.28125 L 206.109375 -44.0625 C 198.710938 -17.914062 187.253906 -0.207031 171.734375 9.0625 C 169.335938 9.6875 167.984375 10 167.671875 10 L 167.671875 13.125 C 167.878906 14.582031 168.554688 15.3125 169.703125 15.3125 C 169.703125 14.582031 170.066406 14.21875 170.796875 14.21875 L 171.734375 16.25 C 157.765625 25.3125 141.09375 29.84375 121.71875 29.84375 L 119.6875 29.84375 C 94.0625 29.84375 71.875 24.632812 53.125 14.21875 C 49.476562 14.21875 43.90625 13.175781 36.40625 11.09375 L 34.375 11.09375 L 34.375 10 C 35.101562 8.75 35.46875 7.707031 35.46875 6.875 C 17.34375 -9.582031 8.28125 -24.113281 8.28125 -36.71875 C 7.03125 -36.71875 6.351562 -40.207031 6.25 -47.1875 L 6.25 -48.28125 C 2.082031 -48.28125 0 -48.957031 0 -50.3125 C 0.726562 -50.3125 1.09375 -50.675781 1.09375 -51.40625 C 13.90625 -52.03125 23.28125 -52.34375 29.21875 -52.34375 L 71.875 -52.34375 C 74.375 -49.425781 77.5 -47.707031 81.25 -47.1875 C 86.5625 -34.6875 94.53125 -28.4375 105.15625 -28.4375 C 115.363281 -28.4375 124.007812 -34.6875 131.09375 -47.1875 C 127.65625 -48.125 125.9375 -49.164062 125.9375 -50.3125 L 127.96875 -51.40625 L 129.0625 -51.40625 C 132.707031 -51.40625 138.59375 -51.71875 146.71875 -52.34375 L 148.90625 -63.90625 C 148.90625 -81.925781 139.84375 -93.695312 121.71875 -99.21875 L 64.53125 -99.21875 C 57.238281 -99.21875 46.144531 -99.582031 31.25 -100.3125 L 30.15625 -102.34375 C 33.488281 -104.84375 39.0625 -111.769531 46.875 -123.125 C 41.976562 -123.851562 39.53125 -124.582031 39.53125 -125.3125 L 37.5 -124.21875 L 35.46875 -125.3125 L 30.15625 -124.21875 L 30.15625 -126.25 C 35.570312 -126.25 43.226562 -133.90625 53.125 -149.21875 C 66.25 -165.582031 72.8125 -174.234375 72.8125 -175.171875 C 73.539062 -175.171875 74.582031 -174.859375 75.9375 -174.234375 C 83.019531 -174.859375 88.59375 -175.171875 92.65625 -175.171875 L 100.9375 -175.171875 L 100.9375 -177.359375 L 90.625 -177.359375 C 89.0625 -177.359375 87.65625 -177.671875 86.40625 -178.296875 C 85.050781 -177.671875 84.007812 -177.359375 83.28125 -177.359375 L 81.25 -178.296875 C 80 -177.671875 78.59375 -177.359375 77.03125 -177.359375 C 77.03125 -179.441406 75.625 -180.484375 72.8125 -180.484375 L 72.8125 -182.515625 C 77.5 -191.578125 83.070312 -196.109375 89.53125 -196.109375 L 92.65625 -200.171875 L 92.65625 -202.359375 L 37.5 -202.359375 C 30.519531 -202.359375 20.101562 -202.671875 6.25 -203.296875 L 5.15625 -205.484375 C 5.15625 -206.109375 5.519531 -206.421875 6.25 -206.421875 L 5.15625 -211.734375 C 5.15625 -212.773438 5.519531 -217.617188 6.25 -226.265625 C 5.519531 -226.265625 5.15625 -226.578125 5.15625 -227.203125 C 11.40625 -228.242188 14.53125 -229.648438 14.53125 -231.421875 L 14.53125 -242.828125 L 13.59375 -248.140625 L 6.25 -248.140625 L 6.25 -254.390625 C 6.457031 -255.742188 7.132812 -256.421875 8.28125 -256.421875 Z M 52.03125 -177.359375 L 53.125 -177.359375 L 53.125 -175.171875 L 52.03125 -175.171875 Z M 61.40625 -177.359375 L 63.4375 -177.359375 L 63.4375 -175.171875 L 61.40625 -175.171875 Z M 17.65625 -127.34375 L 19.84375 -127.34375 L 19.84375 -125.3125 L 17.65625 -125.3125 Z M 29.21875 9.0625 L 32.34375 9.0625 L 32.34375 11.09375 L 29.21875 11.09375 Z M 29.21875 9.0625 "/></g></g></g></g></g></g></svg>